<svg width="32" height="32" viewBox="0 0 32 32" fill="none" xmlns="http://www.w3.org/2000/svg">
<path d="M16 16C17.1046 16 18 15.1046 18 14C18 12.8954 17.1046 12 16 12C14.8954 12 14 12.8954 14 14C14 15.1046 14.8954 16 16 16Z" fill="black"/>
<path d="M29.8681 10.504L25.8681 3.50397C25.802 3.38839 25.7136 3.28717 25.6078 3.20624C25.5021 3.12531 25.3813 3.0663 25.2525 3.03268C25.1237 2.99905 24.9895 2.99149 24.8577 3.01043C24.7259 3.02937 24.5992 3.07443 24.4851 3.14297L19.7231 5.99997H12.2771L7.51511 3.14297C7.40104 3.07439 7.27442 3.02927 7.14268 3.01025C7.01095 2.99124 6.87674 2.99872 6.74793 3.03225C6.61912 3.06578 6.4983 3.12469 6.39256 3.20552C6.28681 3.28635 6.19826 3.38747 6.13211 3.50297L2.13211 10.503C2.00217 10.73 1.96636 10.9989 2.03235 11.252C2.09834 11.5051 2.26087 11.7223 2.48511 11.857L7.26111 14.723L11.0001 21.266V27C11.0001 27.2652 11.1055 27.5195 11.293 27.7071C11.4805 27.8946 11.7349 28 12.0001 28H20.0001C20.2653 28 20.5197 27.8946 20.7072 27.7071C20.8948 27.5195 21.0001 27.2652 21.0001 27V21.266L24.7391 14.723L29.5151 11.857C29.7391 11.7223 29.9014 11.5053 29.9674 11.2524C30.0334 10.9996 29.9977 10.7309 29.8681 10.504ZM18.8481 21H13.1521L8.57611 12.992L11.4291 7.99997H20.5711L23.4241 12.992L18.8481 21Z" fill="black"/>
</svg>
