<svg width="1536" height="1280" viewBox="0 0 1536 1280" fill="none" xmlns="http://www.w3.org/2000/svg">
<g clip-path="url(#clip0_82_2)">
<path d="M1536 1088V1216C1536 1233.33 1529.67 1248.33 1517 1261C1504.33 1273.67 1489.33 1280 1472 1280H64C46.6667 1280 31.6667 1273.67 19 1261C6.33333 1248.33 0 1233.33 0 1216V1088C0 1070.67 6.33333 1055.67 19 1043C31.6667 1030.33 46.6667 1024 64 1024H1472C1489.33 1024 1504.33 1030.33 1517 1043C1529.67 1055.67 1536 1070.67 1536 1088ZM1536 576V704C1536 721.333 1529.67 736.333 1517 749C1504.33 761.667 1489.33 768 1472 768H64C46.6667 768 31.6667 761.667 19 749C6.33333 736.333 0 721.333 0 704V576C0 558.667 6.33333 543.667 19 531C31.6667 518.333 46.6667 512 64 512H1472C1489.33 512 1504.33 518.333 1517 531C1529.67 543.667 1536 558.667 1536 576ZM1536 64V192C1536 209.333 1529.67 224.333 1517 237C1504.33 249.667 1489.33 256 1472 256H64C46.6667 256 31.6667 249.667 19 237C6.33333 224.333 0 209.333 0 192V64C0 46.6667 6.33333 31.6667 19 19C31.6667 6.33333 46.6667 0 64 0H1472C1489.33 0 1504.33 6.33333 1517 19C1529.67 31.6667 1536 46.6667 1536 64Z" fill="black"/>
</g>
<defs>
<clipPath id="clip0_82_2">
<rect width="1536" height="1280" fill="white"/>
</clipPath>
</defs>
</svg>
